;TYPE=PLATED
;Layer: PTH_Through
;EasyEDA Pro v2.2.27.1, 2024-09-15 23:16:57
;Gerber Generator version 0.3
M48
METRIC,LZ,000.00000
;Hole size 1 = 0.30500 METRIC
T01C0.30500
;Hole size 2 = 0.60000 METRIC
T02C0.60000
;Hole size 3 = 2.54000 METRIC
T03C2.54000
;Hole size 4 = 2.59999 METRIC
T04C2.59999
%
G05
G90
T01
X9.906Y-33.909
X11.2395Y-33.909
X13.9065Y-33.909
X12.573Y-33.909
X15.24Y-33.909
X15.24Y-35.306
X13.9065Y-35.306
X12.573Y-35.306
X11.2395Y-35.306
X9.906Y-35.306
X15.24Y-36.703
X13.9065Y-36.703
X12.573Y-36.703
X11.2395Y-36.703
X9.906Y-36.703
X34.163Y-36.703
X32.8295Y-36.703
X31.496Y-36.703
X34.163Y-35.306
X32.8295Y-35.306
X31.496Y-35.306
X31.496Y-33.909
X32.8295Y-33.909
X34.163Y-33.909
X38.4175Y-45.847
X38.4175Y-44.45
X38.4175Y-43.053
X37.084Y-43.053
X35.7505Y-43.053
X35.7505Y-44.45
X37.084Y-44.45
X37.084Y-45.847
X35.7505Y-45.847
X10.8585Y-45.974
X10.8585Y-44.577
X10.8585Y-43.18
X9.525Y-43.18
X8.1915Y-43.18
X8.1915Y-44.577
X9.525Y-44.577
X9.525Y-45.974
X8.1915Y-45.974
X13.2715Y-5.461
X13.2715Y-4.064
X13.2715Y-2.667
X11.938Y-2.667
X10.6045Y-2.667
X10.6045Y-4.064
X11.938Y-4.064
X11.938Y-5.461
X10.6045Y-5.461
X19.7485Y-5.461
X19.7485Y-4.064
X19.7485Y-2.667
X18.415Y-2.667
X17.0815Y-2.667
X17.0815Y-4.064
X18.415Y-4.064
X18.415Y-5.461
X17.0815Y-5.461
X29.5275Y-5.461
X29.5275Y-4.064
X29.5275Y-2.667
X28.194Y-2.667
X26.8605Y-2.667
X26.8605Y-4.064
X28.194Y-4.064
X28.194Y-5.461
X26.8605Y-5.461
X36.1315Y-5.461
X36.1315Y-4.064
X36.1315Y-2.667
X34.798Y-2.667
X33.4645Y-2.667
X33.4645Y-4.064
X34.798Y-4.064
X34.798Y-5.461
X33.4645Y-5.461
X43.2435Y-11.43
X43.2435Y-10.033
X41.91Y-10.033
X41.91Y-11.43
X43.2435Y-19.431
X43.2435Y-18.034
X41.91Y-18.034
X41.91Y-19.431
X43.2435Y-35.306
X43.2435Y-33.909
X41.91Y-33.909
X41.91Y-35.306
X43.2435Y-27.305
X43.2435Y-25.908
X41.91Y-25.908
X41.91Y-27.305
X4.6355Y-35.306
X4.6355Y-33.909
X3.302Y-33.909
X3.302Y-35.306
X4.6355Y-27.305
X4.6355Y-25.908
X3.302Y-25.908
X3.302Y-27.305
X4.6355Y-19.431
X4.6355Y-18.034
X3.302Y-18.034
X3.302Y-19.431
X4.6355Y-11.43
X4.6355Y-10.033
X3.302Y-10.033
X3.302Y-11.43
X19.431Y-45.72
X19.431Y-44.323
X18.0975Y-44.323
X18.0975Y-45.72
X27.94Y-45.72
X27.94Y-44.323
X26.6065Y-44.323
X26.6065Y-45.72
X33.02Y-45.72
X33.02Y-44.323
X31.6865Y-44.323
X31.6865Y-45.72
X13.462Y-45.72
X13.462Y-44.323
X12.1285Y-44.323
X12.1285Y-45.72
X43.307Y-40.259
X43.307Y-38.862
X41.9735Y-38.862
X41.9735Y-40.259
X4.699Y-40.132
X4.699Y-38.735
X3.3655Y-38.735
X3.3655Y-40.132
T02
X16.74485Y-11.23198G85X16.74485Y-12.23198
X30.24495Y-11.23224G85X30.24495Y-12.23223
T03
X34.798Y-14.31112
X34.798Y-9.31113
X12.065Y-14.31112
X12.065Y-9.31113
X19.177Y-30.05912
X19.177Y-25.05913
X12.065Y-26.37612
X12.065Y-21.37613
X20.98775Y-36.79497
X25.98774Y-36.79497
X27.6035Y-30.05912
X27.6035Y-25.05913
X34.798Y-26.37612
X34.798Y-21.37613
T04
X19.89493Y-17.73207
X27.09482Y-17.73212
M30