G04 Layer: TopSilkscreenLayer*
G04 EasyEDA Pro v2.2.27.1, 2024-09-15 23:16:57*
G04 Gerber Generator version 0.3*
G04 Scale: 100 percent, Rotated: No, Reflected: No*
G04 Dimensions in millimeters*
G04 Leading zeros omitted, absolute positions, 3 integers and 5 decimals*
%FSLAX35Y35*%
%MOMM*%
%ADD10C,0.2032*%
%ADD11C,0.1524*%
%ADD12C,0.254*%
%ADD13C,0.25999*%
G75*


G04 Text Start*
G54D10*
G01X1750060Y-1427201D02*
G01X1852930Y-1427201D01*
G01X2906522Y-1401293D02*
G01X2906522Y-1504163D01*
G01X2854960Y-1452601D02*
G01X2957830Y-1452601D01*
G54D11*
G01X820420Y-3347466D02*
G01X820420Y-3412490D01*
G01X820420Y-3412490D02*
G01X857504Y-3412490D01*
G01X887730Y-3359912D02*
G01X893826Y-3356610D01*
G01X902970Y-3347466D01*
G01X902970Y-3412490D01*
G01X820420Y-3512566D02*
G01X820420Y-3577590D01*
G01X863854Y-3512566D02*
G01X863854Y-3577590D01*
G01X820420Y-3543554D02*
G01X863854Y-3543554D01*
G01X894080Y-3525012D02*
G01X900176Y-3521710D01*
G01X909320Y-3512566D01*
G01X909320Y-3577590D01*
G01X820420Y-2712566D02*
G01X820420Y-2777590D01*
G01X863854Y-2712566D02*
G01X863854Y-2777590D01*
G01X820420Y-2743554D02*
G01X863854Y-2743554D01*
G01X894080Y-2725012D02*
G01X900176Y-2721710D01*
G01X909320Y-2712566D01*
G01X909320Y-2777590D01*
G01X820420Y-2547466D02*
G01X820420Y-2612490D01*
G01X820420Y-2612490D02*
G01X857504Y-2612490D01*
G01X887730Y-2559912D02*
G01X893826Y-2556610D01*
G01X902970Y-2547466D01*
G01X902970Y-2612490D01*
G01X820420Y-1747466D02*
G01X820420Y-1812490D01*
G01X820420Y-1812490D02*
G01X857504Y-1812490D01*
G01X887730Y-1759912D02*
G01X893826Y-1756610D01*
G01X902970Y-1747466D01*
G01X902970Y-1812490D01*
G01X820420Y-1912566D02*
G01X820420Y-1977590D01*
G01X863854Y-1912566D02*
G01X863854Y-1977590D01*
G01X820420Y-1943554D02*
G01X863854Y-1943554D01*
G01X894080Y-1925012D02*
G01X900176Y-1921710D01*
G01X909320Y-1912566D01*
G01X909320Y-1977590D01*
G01X820420Y-947466D02*
G01X820420Y-1012490D01*
G01X820420Y-1012490D02*
G01X857504Y-1012490D01*
G01X887730Y-959912D02*
G01X893826Y-956610D01*
G01X902970Y-947466D01*
G01X902970Y-1012490D01*
G01X820420Y-1112566D02*
G01X820420Y-1177590D01*
G01X863854Y-1112566D02*
G01X863854Y-1177590D01*
G01X820420Y-1143554D02*
G01X863854Y-1143554D01*
G01X894080Y-1125012D02*
G01X900176Y-1121710D01*
G01X909320Y-1112566D01*
G01X909320Y-1177590D01*
G01X3771313Y-949587D02*
G01X3771313Y-1014611D01*
G01X3771313Y-1014611D02*
G01X3808397Y-1014611D01*
G01X3838623Y-962033D02*
G01X3844719Y-958731D01*
G01X3853863Y-949587D01*
G01X3853863Y-1014611D01*
G01X3771313Y-1114687D02*
G01X3771313Y-1179711D01*
G01X3814747Y-1114687D02*
G01X3814747Y-1179711D01*
G01X3771313Y-1145675D02*
G01X3814747Y-1145675D01*
G01X3844973Y-1127133D02*
G01X3851069Y-1123831D01*
G01X3860213Y-1114687D01*
G01X3860213Y-1179711D01*
G01X3771313Y-1914687D02*
G01X3771313Y-1979711D01*
G01X3814747Y-1914687D02*
G01X3814747Y-1979711D01*
G01X3771313Y-1945675D02*
G01X3814747Y-1945675D01*
G01X3844973Y-1927133D02*
G01X3851069Y-1923831D01*
G01X3860213Y-1914687D01*
G01X3860213Y-1979711D01*
G01X3771313Y-1749587D02*
G01X3771313Y-1814611D01*
G01X3771313Y-1814611D02*
G01X3808397Y-1814611D01*
G01X3838623Y-1762033D02*
G01X3844719Y-1758731D01*
G01X3853863Y-1749587D01*
G01X3853863Y-1814611D01*
G01X3770150Y-3514687D02*
G01X3770150Y-3579711D01*
G01X3813584Y-3514687D02*
G01X3813584Y-3579711D01*
G01X3770150Y-3545675D02*
G01X3813584Y-3545675D01*
G01X3843810Y-3527133D02*
G01X3849906Y-3523831D01*
G01X3859050Y-3514687D01*
G01X3859050Y-3579711D01*
G01X3770150Y-3349587D02*
G01X3770150Y-3414611D01*
G01X3770150Y-3414611D02*
G01X3807234Y-3414611D01*
G01X3837460Y-3362033D02*
G01X3843556Y-3358731D01*
G01X3852700Y-3349587D01*
G01X3852700Y-3414611D01*
G01X3770150Y-2714687D02*
G01X3770150Y-2779711D01*
G01X3813584Y-2714687D02*
G01X3813584Y-2779711D01*
G01X3770150Y-2745675D02*
G01X3813584Y-2745675D01*
G01X3843810Y-2727133D02*
G01X3849906Y-2723831D01*
G01X3859050Y-2714687D01*
G01X3859050Y-2779711D01*
G01X3770150Y-2549587D02*
G01X3770150Y-2614611D01*
G01X3770150Y-2614611D02*
G01X3807234Y-2614611D01*
G01X3837460Y-2562033D02*
G01X3843556Y-2558731D01*
G01X3852700Y-2549587D01*
G01X3852700Y-2614611D01*
G01X2750820Y-3995166D02*
G01X2750820Y-4060190D01*
G01X2794254Y-3995166D02*
G01X2794254Y-4060190D01*
G01X2750820Y-4026154D02*
G01X2794254Y-4026154D01*
G01X2824480Y-4007612D02*
G01X2830576Y-4004310D01*
G01X2839720Y-3995166D01*
G01X2839720Y-4060190D01*
G01X2611120Y-3995166D02*
G01X2611120Y-4060190D01*
G01X2611120Y-4060190D02*
G01X2648204Y-4060190D01*
G01X2678430Y-4007612D02*
G01X2684526Y-4004310D01*
G01X2693670Y-3995166D01*
G01X2693670Y-4060190D01*
G01X1887220Y-3995166D02*
G01X1887220Y-4060190D01*
G01X1930654Y-3995166D02*
G01X1930654Y-4060190D01*
G01X1887220Y-4026154D02*
G01X1930654Y-4026154D01*
G01X1960880Y-4007612D02*
G01X1966976Y-4004310D01*
G01X1976120Y-3995166D01*
G01X1976120Y-4060190D01*
G01X2039620Y-3995166D02*
G01X2039620Y-4060190D01*
G01X2039620Y-4060190D02*
G01X2076704Y-4060190D01*
G01X2106930Y-4007612D02*
G01X2113026Y-4004310D01*
G01X2122170Y-3995166D01*
G01X2122170Y-4060190D01*
G54D10*
G01X2706370Y-2015490D02*
G01X2706370Y-2175510D01*
G01X2626360Y-2095500D02*
G01X2786380Y-2095500D01*
G01X1915160Y-2095500D02*
G01X2075180Y-2095500D01*
G04 Text End*

G04 PolygonModel Start*
G54D12*
G01X1574493Y-156649D02*
G01X1574493Y-1573190D01*
G01X3124487Y-156649D02*
G01X3124487Y-1573190D01*
G01X1574493Y-156649D02*
G01X3124487Y-156649D01*
G01X1895132Y-1964118D02*
G01X1750131Y-1963356D01*
G01X2623320Y-1967946D02*
G01X2081868Y-1965101D01*
G01X2955686Y-1969694D02*
G01X2793616Y-1968843D01*
G01X3124190Y-1566890D02*
G02X2955686Y-1969694I-599823J14276D01*
G01X1574790Y-1562090D02*
G03X1743293Y-1964893I599823J14276D01*
G01X1633982Y-4241800D02*
G01X1460500Y-4241800D01*
G01X1460500Y-4241800D02*
G01X1460500Y-4381500D01*
G01X1587500Y-4660900D02*
G01X2171700Y-4660900D01*
G01X2125215Y-4241800D02*
G01X2298700Y-4241800D01*
G01X2298700Y-4241800D02*
G01X2298700Y-4385686D01*
G01X247911Y-890028D02*
G01X247911Y-1240215D01*
G01X528124Y-777834D02*
G01X523125Y-777834D01*
G01X682515Y-1188443D02*
G01X682210Y-1359943D01*
G01X682210Y-1359943D02*
G01X529810Y-1359943D01*
G01X682515Y-777834D02*
G01X528124Y-777834D01*
G01X682515Y-1063439D02*
G01X682515Y-1072215D01*
G01X682515Y-777834D02*
G01X682515Y-947211D01*
G01X235211Y-1690028D02*
G01X235211Y-2040215D01*
G01X515424Y-1577834D02*
G01X510425Y-1577834D01*
G01X669815Y-1988443D02*
G01X669510Y-2159943D01*
G01X669510Y-2159943D02*
G01X517110Y-2159943D01*
G01X669815Y-1577834D02*
G01X515424Y-1577834D01*
G01X669815Y-1863439D02*
G01X669815Y-1872215D01*
G01X669815Y-1577834D02*
G01X669815Y-1747211D01*
G01X235211Y-2490028D02*
G01X235211Y-2840215D01*
G01X515424Y-2377834D02*
G01X510425Y-2377834D01*
G01X669815Y-2788443D02*
G01X669510Y-2959943D01*
G01X669510Y-2959943D02*
G01X517110Y-2959943D01*
G01X669815Y-2377834D02*
G01X515424Y-2377834D01*
G01X669815Y-2663439D02*
G01X669815Y-2672215D01*
G01X669815Y-2377834D02*
G01X669815Y-2547211D01*
G01X235211Y-3290028D02*
G01X235211Y-3640215D01*
G01X515424Y-3177834D02*
G01X510425Y-3177834D01*
G01X669815Y-3588443D02*
G01X669510Y-3759943D01*
G01X669510Y-3759943D02*
G01X517110Y-3759943D01*
G01X669815Y-3177834D02*
G01X515424Y-3177834D01*
G01X669815Y-3463439D02*
G01X669815Y-3472215D01*
G01X669815Y-3177834D02*
G01X669815Y-3347211D01*
G01X4432011Y-3647749D02*
G01X4432011Y-3297562D01*
G01X4151798Y-3759943D02*
G01X4156797Y-3759943D01*
G01X3997407Y-3349335D02*
G01X3997712Y-3177834D01*
G01X3997712Y-3177834D02*
G01X4150112Y-3177834D01*
G01X3997407Y-3759943D02*
G01X4151798Y-3759943D01*
G01X3997407Y-3474338D02*
G01X3997407Y-3465563D01*
G01X3997407Y-3759943D02*
G01X3997407Y-3590566D01*
G01X4432011Y-2847749D02*
G01X4432011Y-2497562D01*
G01X4151798Y-2959943D02*
G01X4156797Y-2959943D01*
G01X3997407Y-2549335D02*
G01X3997712Y-2377834D01*
G01X3997712Y-2377834D02*
G01X4150112Y-2377834D01*
G01X3997407Y-2959943D02*
G01X4151798Y-2959943D01*
G01X3997407Y-2674338D02*
G01X3997407Y-2665563D01*
G01X3997407Y-2959943D02*
G01X3997407Y-2790566D01*
G01X4432011Y-2047749D02*
G01X4432011Y-1697562D01*
G01X4151798Y-2159943D02*
G01X4156797Y-2159943D01*
G01X3997407Y-1749335D02*
G01X3997712Y-1577834D01*
G01X3997712Y-1577834D02*
G01X4150112Y-1577834D01*
G01X3997407Y-2159943D02*
G01X4151798Y-2159943D01*
G01X3997407Y-1874338D02*
G01X3997407Y-1865563D01*
G01X3997407Y-2159943D02*
G01X3997407Y-1990566D01*
G01X4432011Y-1247749D02*
G01X4432011Y-897562D01*
G01X4151798Y-1359943D02*
G01X4156797Y-1359943D01*
G01X3997407Y-949335D02*
G01X3997712Y-777834D01*
G01X3997712Y-777834D02*
G01X4150112Y-777834D01*
G01X3997407Y-1359943D02*
G01X4151798Y-1359943D01*
G01X3997407Y-1074338D02*
G01X3997407Y-1065563D01*
G01X3997407Y-1359943D02*
G01X3997407Y-1190566D01*
G01X2535751Y-4654055D02*
G01X2885938Y-4654055D01*
G01X2423556Y-4373842D02*
G01X2423556Y-4378841D01*
G01X2834165Y-4219451D02*
G01X3005666Y-4219755D01*
G01X3005666Y-4219755D02*
G01X3005666Y-4372155D01*
G01X2423556Y-4219451D02*
G01X2423556Y-4373842D01*
G01X2709161Y-4219451D02*
G01X2717937Y-4219451D01*
G01X2423556Y-4219451D02*
G01X2592934Y-4219451D01*
G01X3699800Y-981113D02*
G01X3699800Y-931029D01*
G01X3699800Y-931029D02*
G01X3699782Y-931029D01*
G01X3259800Y-981113D02*
G01X3259800Y-931131D01*
G01X3259800Y-931131D02*
G01X3259818Y-931131D01*
G01X3259800Y-1651112D02*
G01X3259800Y-981113D01*
G01X3259800Y-1651112D02*
G01X3699800Y-1651112D01*
G01X3699800Y-1651112D02*
G01X3699800Y-981113D01*
G01X3219801Y-929681D02*
G01X3219801Y-1691114D01*
G01X3219801Y-1691114D02*
G01X3739799Y-1691114D01*
G01X3739799Y-1691114D02*
G01X3739799Y-929681D01*
G01X3739799Y-929681D02*
G03X3219801Y-929681I-259999J0D01*
G01X3699782Y-931029D02*
G03X3259818Y-931131I-219982J-51D01*
G01X1426500Y-981113D02*
G01X1426500Y-931029D01*
G01X1426500Y-931029D02*
G01X1426482Y-931029D01*
G01X986500Y-981113D02*
G01X986500Y-931131D01*
G01X986500Y-931131D02*
G01X986518Y-931131D01*
G01X986500Y-1651112D02*
G01X986500Y-981113D01*
G01X986500Y-1651112D02*
G01X1426500Y-1651112D01*
G01X1426500Y-1651112D02*
G01X1426500Y-981113D01*
G01X946501Y-929681D02*
G01X946501Y-1691114D01*
G01X946501Y-1691114D02*
G01X1466499Y-1691114D01*
G01X1466499Y-1691114D02*
G01X1466499Y-929681D01*
G01X1466499Y-929681D02*
G03X946501Y-929681I-259999J0D01*
G01X1426482Y-931029D02*
G03X986518Y-931131I-219982J-51D01*
G01X2137700Y-2555913D02*
G01X2137700Y-2505829D01*
G01X2137700Y-2505829D02*
G01X2137682Y-2505829D01*
G01X1697700Y-2555913D02*
G01X1697700Y-2505931D01*
G01X1697700Y-2505931D02*
G01X1697718Y-2505931D01*
G01X1697700Y-3225912D02*
G01X1697700Y-2555913D01*
G01X1697700Y-3225912D02*
G01X2137700Y-3225912D01*
G01X2137700Y-3225912D02*
G01X2137700Y-2555913D01*
G01X1657701Y-2504481D02*
G01X1657701Y-3265914D01*
G01X1657701Y-3265914D02*
G01X2177699Y-3265914D01*
G01X2177699Y-3265914D02*
G01X2177699Y-2504481D01*
G01X2177699Y-2504481D02*
G03X1657701Y-2504481I-259999J0D01*
G01X2137682Y-2505829D02*
G03X1697718Y-2505931I-219982J-51D01*
G01X1426500Y-2187613D02*
G01X1426500Y-2137529D01*
G01X1426500Y-2137529D02*
G01X1426482Y-2137529D01*
G01X986500Y-2187613D02*
G01X986500Y-2137631D01*
G01X986500Y-2137631D02*
G01X986518Y-2137631D01*
G01X986500Y-2857612D02*
G01X986500Y-2187613D01*
G01X986500Y-2857612D02*
G01X1426500Y-2857612D01*
G01X1426500Y-2857612D02*
G01X1426500Y-2187613D01*
G01X946501Y-2136181D02*
G01X946501Y-2897614D01*
G01X946501Y-2897614D02*
G01X1466499Y-2897614D01*
G01X1466499Y-2897614D02*
G01X1466499Y-2136181D01*
G01X1466499Y-2136181D02*
G03X946501Y-2136181I-259999J0D01*
G01X1426482Y-2137529D02*
G03X986518Y-2137631I-219982J-51D01*
G01X2548774Y-3899497D02*
G01X2598858Y-3899497D01*
G01X2598858Y-3899497D02*
G01X2598858Y-3899479D01*
G01X2548774Y-3459498D02*
G01X2598757Y-3459498D01*
G01X2598757Y-3459498D02*
G01X2598757Y-3459516D01*
G01X1878776Y-3459498D02*
G01X2548774Y-3459498D01*
G01X1878776Y-3459498D02*
G01X1878776Y-3899497D01*
G01X1878776Y-3899497D02*
G01X2548774Y-3899497D01*
G01X2600207Y-3419498D02*
G01X1838773Y-3419498D01*
G01X1838773Y-3419498D02*
G01X1838773Y-3939497D01*
G01X1838773Y-3939497D02*
G01X2600207Y-3939497D01*
G01X2600207Y-3939497D02*
G03X2600207Y-3419498I0J259999D01*
G01X2598858Y-3899479D02*
G03X2598757Y-3459516I-51J219982D01*
G01X2980350Y-2555913D02*
G01X2980350Y-2505829D01*
G01X2980350Y-2505829D02*
G01X2980332Y-2505829D01*
G01X2540351Y-2555913D02*
G01X2540351Y-2505931D01*
G01X2540351Y-2505931D02*
G01X2540368Y-2505931D01*
G01X2540351Y-3225912D02*
G01X2540351Y-2555913D01*
G01X2540351Y-3225912D02*
G01X2980350Y-3225912D01*
G01X2980350Y-3225912D02*
G01X2980350Y-2555913D01*
G01X2500351Y-2504481D02*
G01X2500351Y-3265914D01*
G01X2500351Y-3265914D02*
G01X3020350Y-3265914D01*
G01X3020350Y-3265914D02*
G01X3020350Y-2504481D01*
G01X3020350Y-2504481D02*
G03X2500351Y-2504481I-259999J0D01*
G01X2980332Y-2505829D02*
G03X2540368Y-2505931I-219982J-51D01*
G01X3699800Y-2187613D02*
G01X3699800Y-2137529D01*
G01X3699800Y-2137529D02*
G01X3699782Y-2137529D01*
G01X3259800Y-2187613D02*
G01X3259800Y-2137631D01*
G01X3259800Y-2137631D02*
G01X3259818Y-2137631D01*
G01X3259800Y-2857612D02*
G01X3259800Y-2187613D01*
G01X3259800Y-2857612D02*
G01X3699800Y-2857612D01*
G01X3699800Y-2857612D02*
G01X3699800Y-2187613D01*
G01X3219801Y-2136181D02*
G01X3219801Y-2897614D01*
G01X3219801Y-2897614D02*
G01X3739799Y-2897614D01*
G01X3739799Y-2897614D02*
G01X3739799Y-2136181D01*
G01X3739799Y-2136181D02*
G03X3219801Y-2136181I-259999J0D01*
G01X3699782Y-2137529D02*
G03X3259818Y-2137631I-219982J-51D01*

G04 Circle Start*
G01X1587500Y-4203705D02*
G03X1612900Y-4203705I12700J0D01*
G03X1587500Y-4203705I-12700J0D01*
G54D13*
G01X739490Y-897813D02*
G03X765499Y-897813I13005J0D01*
G03X739490Y-897813I-13005J0D01*
G01X726790Y-1697813D02*
G03X752799Y-1697813I13005J0D01*
G03X726790Y-1697813I-13005J0D01*
G01X726790Y-2497813D02*
G03X752799Y-2497813I13005J0D01*
G03X726790Y-2497813I-13005J0D01*
G01X726790Y-3297813D02*
G03X752799Y-3297813I13005J0D01*
G03X726790Y-3297813I-13005J0D01*
G01X3914423Y-3639964D02*
G03X3940432Y-3639964I13005J0D01*
G03X3914423Y-3639964I-13005J0D01*
G01X3914423Y-2839964D02*
G03X3940432Y-2839964I13005J0D01*
G03X3914423Y-2839964I-13005J0D01*
G01X3914423Y-2039964D02*
G03X3940432Y-2039964I13005J0D01*
G03X3914423Y-2039964I-13005J0D01*
G01X3914423Y-1239964D02*
G03X3940432Y-1239964I13005J0D01*
G03X3914423Y-1239964I-13005J0D01*
G01X2530531Y-4149471D02*
G03X2556540Y-4149471I13005J0D01*
G03X2530531Y-4149471I-13005J0D01*
G04 Circle End*

M02*

