G04 Layer: TopLayer*
G04 EasyEDA Pro v2.2.27.1, 2024-09-15 23:16:57*
G04 Gerber Generator version 0.3*
G04 Scale: 100 percent, Rotated: No, Reflected: No*
G04 Dimensions in millimeters*
G04 Leading zeros omitted, absolute positions, 3 integers and 5 decimals*
%FSLAX35Y35*%
%MOMM*%
%ADD10O,1.2X2.2*%
%ADD11C,3.79999*%
%ADD12R,0.7X1.8*%
%ADD13R,1.0X2.69999*%
%ADD14R,1.0X2.69999*%
%ADD15R,1.8X0.7*%
%ADD16R,2.69999X1.0*%
%ADD17R,1.8020X0.7*%
%ADD18R,1.8X0.7*%
%ADD19R,2.69999X1.0*%
%ADD20C,0.61*%
%ADD21C,0.254*%
G75*


G04 TearDrop Start*
G36*
G01X1976819Y-4090329D02*
G01X1990580Y-4112489D01*
G03X1977109Y-4152900I53882J-40411D01*
G01X1936408Y-4103799D01*
G03X1976819Y-4090329I0J67352D01*
G37*
G36*
G01X1893639Y-4112489D02*
G01X1907400Y-4090329D01*
G03X1947811Y-4103799I40411J53882D01*
G01X1907109Y-4152900D01*
G03X1893639Y-4112489I-67352J0D01*
G37*
G36*
G01X2032393Y-4297269D02*
G01X2018632Y-4275109D01*
G03X2032103Y-4234698I-53882J40411D01*
G01X2072804Y-4283799D01*
G03X2032393Y-4297269I0J-67352D01*
G37*
G36*
G01X2140203Y-4181099D02*
G01X2140203Y-4206499D01*
G03X2102103Y-4225549I0J-47625D01*
G01X2102103Y-4162049D01*
G03X2140203Y-4181099I38100J28575D01*
G37*
G36*
G01X620995Y-1053802D02*
G01X611534Y-1027341D01*
G03X625005Y-986930I-53882J40411D01*
G01X661406Y-1040331D01*
G03X620995Y-1053802I0J-67352D01*
G37*
G36*
G01X789100Y-1199160D02*
G01X739390Y-1185371D01*
G03X705554Y-1165325I-56082J-56082D01*
G01X769054Y-1165325D01*
G03X789100Y-1199160I76128J22246D01*
G37*
G36*
G01X620995Y-1853802D02*
G01X598834Y-1840041D01*
G03X612305Y-1799630I-53882J40411D01*
G01X661406Y-1840331D01*
G03X620995Y-1853802I0J-67352D01*
G37*
G36*
G01X615508Y-1736496D02*
G01X665219Y-1750285D01*
G03X699054Y-1770331I56082J56082D01*
G01X635554Y-1770331D01*
G03X615508Y-1736496I-76128J-22247D01*
G37*
G36*
G01X775057Y-1881855D02*
G01X805775Y-1887058D01*
G03X792304Y-1927469I53882J-40411D01*
G01X734646Y-1895325D01*
G03X775057Y-1881855I0J67352D01*
G37*
G36*
G01X789100Y-1999160D02*
G01X739390Y-1985371D01*
G03X705554Y-1965325I-56082J-56082D01*
G01X769054Y-1965325D01*
G03X789100Y-1999160I76128J22247D01*
G37*
G36*
G01X615508Y-2536496D02*
G01X665219Y-2550286D01*
G03X699054Y-2570332I56082J56082D01*
G01X635554Y-2570332D01*
G03X615508Y-2536496I-76128J-22247D01*
G37*
G36*
G01X620995Y-2653802D02*
G01X598834Y-2640041D01*
G03X612305Y-2599630I-53881J40411D01*
G01X661406Y-2640332D01*
G03X620995Y-2653802I0J-67352D01*
G37*
G36*
G01X795676Y-2805736D02*
G01X732814Y-2778795D01*
G03X692403Y-2765325I-40411J-53882D01*
G01X782206Y-2765325D01*
G03X795676Y-2805736I47146J-6735D01*
G37*
G36*
G01X787383Y-2681855D02*
G01X805775Y-2699384D01*
G03X792304Y-2739795I53882J-40411D01*
G01X746972Y-2695325D01*
G03X787383Y-2681855I0J67352D01*
G37*
G36*
G01X580877Y-3462785D02*
G01X597916Y-3409825D01*
G03X612305Y-3370332I-47008J39493D01*
G01X612305Y-3440331D01*
G03X580877Y-3462785I51698J-105579D01*
G37*
G36*
G01X597074Y-3336496D02*
G01X646785Y-3350286D01*
G03X680620Y-3370332I56082J56082D01*
G01X617120Y-3370332D01*
G03X597074Y-3336496I-76128J-22247D01*
G37*
G36*
G01X772769Y-3481855D02*
G01X805775Y-3484770D01*
G03X792304Y-3525181I53882J-40411D01*
G01X732358Y-3495325D01*
G03X772769Y-3481855I0J67352D01*
G37*
G36*
G01X751000Y-3599160D02*
G01X701290Y-3585371D01*
G03X667454Y-3565325I-56082J-56082D01*
G01X730954Y-3565325D01*
G03X751000Y-3599160I76128J22247D01*
G37*
G36*
G01X3965932Y-3587492D02*
G01X3916222Y-3601281D01*
G03X3936268Y-3567446I-56082J56082D01*
G01X3999768Y-3567446D01*
G03X3965932Y-3587492I22247J-76128D01*
G37*
G36*
G01X4046227Y-3483976D02*
G01X4068388Y-3497736D01*
G03X4054917Y-3538147I53882J-40411D01*
G01X4005816Y-3497446D01*
G03X4046227Y-3483976I0J67352D01*
G37*
G36*
G01X3846164Y-3467580D02*
G01X3861447Y-3416376D01*
G03X3874918Y-3375965I-53882J40411D01*
G01X3874918Y-3442452D01*
G03X3846164Y-3467580I172352J-226233D01*
G37*
G36*
G01X3861447Y-3379807D02*
G01X3876544Y-3358982D01*
G03X3916955Y-3372452I40411J53882D01*
G01X3874918Y-3420218D01*
G03X3861447Y-3379807I-67352J0D01*
G37*
G36*
G01X4051714Y-2801281D02*
G01X4002003Y-2787492D01*
G03X3968168Y-2767446I-56082J-56082D01*
G01X4031668Y-2767446D01*
G03X4051714Y-2801281I76128J22246D01*
G37*
G36*
G01X4042882Y-2683976D02*
G01X4068388Y-2694390D01*
G03X4054917Y-2734801I53882J-40411D01*
G01X4002470Y-2697446D01*
G03X4042882Y-2683976I0J67352D01*
G37*
G36*
G01X3889472Y-2655923D02*
G01X3861447Y-2648026D01*
G03X3874918Y-2607615I-53882J40411D01*
G01X3929883Y-2642452D01*
G03X3889472Y-2655923I0J-67352D01*
G37*
G36*
G01X3878122Y-2538617D02*
G01X3927832Y-2552407D01*
G03X3961668Y-2572453I56082J56082D01*
G01X3898168Y-2572453D01*
G03X3878122Y-2538617I-76128J-22246D01*
G37*
G36*
G01X4058289Y-2007857D02*
G01X3995427Y-1980916D01*
G03X3955016Y-1967446I-40411J-53882D01*
G01X4044819Y-1967446D01*
G03X4058289Y-2007857I47146J-6735D01*
G37*
G36*
G01X4048516Y-1883975D02*
G01X4068388Y-1900024D01*
G03X4054918Y-1940435I53882J-40411D01*
G01X4008105Y-1897446D01*
G03X4048516Y-1883975I0J67352D01*
G37*
G36*
G01X3883608Y-1855923D02*
G01X3861448Y-1842162D01*
G03X3874918Y-1801751I-53882J40411D01*
G01X3924019Y-1842452D01*
G03X3883608Y-1855923I0J-67352D01*
G37*
G36*
G01X3878122Y-1738617D02*
G01X3927832Y-1752406D01*
G03X3961668Y-1772452I56082J56082D01*
G01X3898168Y-1772452D01*
G03X3878122Y-1738617I-76128J-22247D01*
G37*
G36*
G01X4051714Y-1201281D02*
G01X4002003Y-1187492D01*
G03X3968168Y-1167446I-56082J-56082D01*
G01X4031668Y-1167446D01*
G03X4051714Y-1201281I76128J22246D01*
G37*
G36*
G01X3883608Y-1055923D02*
G01X3861448Y-1042162D01*
G03X3874918Y-1001751I-53882J40411D01*
G01X3924019Y-1042452D01*
G03X3883608Y-1055923I0J-67352D01*
G37*
G36*
G01X2577954Y-4206499D02*
G01X2577954Y-4181099D01*
G03X2616054Y-4162049I0J47625D01*
G01X2616054Y-4225549D01*
G03X2577954Y-4206499I-38100J-28575D01*
G37*
G36*
G01X2699524Y-4268271D02*
G01X2685764Y-4290432D01*
G03X2645352Y-4276961I-40411J-53882D01*
G01X2686054Y-4227860D01*
G03X2699524Y-4268271I67352J0D01*
G37*
G36*
G01X2727577Y-4108227D02*
G01X2738762Y-4083491D01*
G03X2779173Y-4096962I40411J53882D01*
G01X2741047Y-4148638D01*
G03X2727577Y-4108227I-67352J0D01*
G37*
G36*
G01X2849147Y-4126037D02*
G01X2849147Y-4151437D01*
G03X2811047Y-4170487I0J-47625D01*
G01X2811047Y-4106987D01*
G03X2849147Y-4126037I38100J28575D01*
G37*
G04 TearDrop End*

G04 Pad Start*
G54D10*
G01X1674495Y-1173201D03*
G01X3024505Y-1173201D03*
G54D11*
G01X1989506Y-1773199D03*
G01X2709494Y-1773199D03*
G54D12*
G01X1692097Y-4193799D03*
G01X1817091Y-4193799D03*
G01X1942109Y-4193799D03*
G01X2067103Y-4193799D03*
G54D13*
G01X1509090Y-4543811D03*
G54D14*
G01X2250110Y-4543811D03*
G54D15*
G01X715004Y-1005331D03*
G01X715004Y-1130325D03*
G54D16*
G01X365018Y-822324D03*
G01X365018Y-1313332D03*
G54D15*
G01X702304Y-1805331D03*
G01X702304Y-1930325D03*
G54D16*
G01X352318Y-1622324D03*
G01X352318Y-2113332D03*
G54D15*
G01X702304Y-2605332D03*
G01X702304Y-2730325D03*
G54D16*
G01X352318Y-2422325D03*
G01X352318Y-2913332D03*
G54D15*
G01X702304Y-3405332D03*
G01X702304Y-3530325D03*
G54D16*
G01X352318Y-3222325D03*
G01X352318Y-3713332D03*
G54D18*
G01X3964918Y-3532446D03*
G01X3964918Y-3407452D03*
G54D19*
G01X4314904Y-3715453D03*
G01X4314904Y-3224445D03*
G54D18*
G01X3964918Y-2732446D03*
G01X3964918Y-2607452D03*
G54D19*
G01X4314904Y-2915453D03*
G01X4314904Y-2424445D03*
G54D18*
G01X3964918Y-1932446D03*
G01X3964918Y-1807452D03*
G54D19*
G01X4314904Y-2115453D03*
G01X4314904Y-1624445D03*
G54D18*
G01X3964918Y-1132446D03*
G01X3964918Y-1007452D03*
G54D19*
G01X4314904Y-1315453D03*
G01X4314904Y-824445D03*
G54D12*
G01X2651054Y-4186961D03*
G01X2776047Y-4186961D03*
G54D13*
G01X2468047Y-4536948D03*
G01X2959054Y-4536948D03*
G54D11*
G01X3479800Y-1431099D03*
G01X3479800Y-931100D03*
G01X1206500Y-1431099D03*
G01X1206500Y-931100D03*
G01X1917700Y-3005899D03*
G01X1917700Y-2505900D03*
G01X1206500Y-2637599D03*
G01X1206500Y-2137600D03*
G01X2098788Y-3679497D03*
G01X2598787Y-3679497D03*
G01X2760350Y-3005899D03*
G01X2760350Y-2505900D03*
G01X3479800Y-2637599D03*
G01X3479800Y-2137600D03*
G04 Pad End*

G04 Via Start*
G54D20*
G01X990600Y-3390900D03*
G01X1123950Y-3390900D03*
G01X1390650Y-3390900D03*
G01X1257300Y-3390900D03*
G01X1524000Y-3390900D03*
G01X1524000Y-3530600D03*
G01X1390650Y-3530600D03*
G01X1257300Y-3530600D03*
G01X1123950Y-3530600D03*
G01X990600Y-3530600D03*
G01X1524000Y-3670300D03*
G01X1390650Y-3670300D03*
G01X1257300Y-3670300D03*
G01X1123950Y-3670300D03*
G01X990600Y-3670300D03*
G01X3416300Y-3670300D03*
G01X3282950Y-3670300D03*
G01X3149600Y-3670300D03*
G01X3416300Y-3530600D03*
G01X3282950Y-3530600D03*
G01X3149600Y-3530600D03*
G01X3149600Y-3390900D03*
G01X3282950Y-3390900D03*
G01X3416300Y-3390900D03*
G01X3841750Y-4584700D03*
G01X3841750Y-4445000D03*
G01X3841750Y-4305300D03*
G01X3708400Y-4305300D03*
G01X3575050Y-4305300D03*
G01X3575050Y-4445000D03*
G01X3708400Y-4445000D03*
G01X3708400Y-4584700D03*
G01X3575050Y-4584700D03*
G01X1085850Y-4597400D03*
G01X1085850Y-4457700D03*
G01X1085850Y-4318000D03*
G01X952500Y-4318000D03*
G01X819150Y-4318000D03*
G01X819150Y-4457700D03*
G01X952500Y-4457700D03*
G01X952500Y-4597400D03*
G01X819150Y-4597400D03*
G01X1327150Y-546100D03*
G01X1327150Y-406400D03*
G01X1327150Y-266700D03*
G01X1193800Y-266700D03*
G01X1060450Y-266700D03*
G01X1060450Y-406400D03*
G01X1193800Y-406400D03*
G01X1193800Y-546100D03*
G01X1060450Y-546100D03*
G01X1974850Y-546100D03*
G01X1974850Y-406400D03*
G01X1974850Y-266700D03*
G01X1841500Y-266700D03*
G01X1708150Y-266700D03*
G01X1708150Y-406400D03*
G01X1841500Y-406400D03*
G01X1841500Y-546100D03*
G01X1708150Y-546100D03*
G01X2952750Y-546100D03*
G01X2952750Y-406400D03*
G01X2952750Y-266700D03*
G01X2819400Y-266700D03*
G01X2686050Y-266700D03*
G01X2686050Y-406400D03*
G01X2819400Y-406400D03*
G01X2819400Y-546100D03*
G01X2686050Y-546100D03*
G01X3613150Y-546100D03*
G01X3613150Y-406400D03*
G01X3613150Y-266700D03*
G01X3479800Y-266700D03*
G01X3346450Y-266700D03*
G01X3346450Y-406400D03*
G01X3479800Y-406400D03*
G01X3479800Y-546100D03*
G01X3346450Y-546100D03*
G01X4324350Y-1143000D03*
G01X4324350Y-1003300D03*
G01X4191000Y-1003300D03*
G01X4191000Y-1143000D03*
G01X4324350Y-1943100D03*
G01X4324350Y-1803400D03*
G01X4191000Y-1803400D03*
G01X4191000Y-1943100D03*
G01X4324350Y-3530600D03*
G01X4324350Y-3390900D03*
G01X4191000Y-3390900D03*
G01X4191000Y-3530600D03*
G01X4324350Y-2730500D03*
G01X4324350Y-2590800D03*
G01X4191000Y-2590800D03*
G01X4191000Y-2730500D03*
G01X463550Y-3530600D03*
G01X463550Y-3390900D03*
G01X330200Y-3390900D03*
G01X330200Y-3530600D03*
G01X463550Y-2730500D03*
G01X463550Y-2590800D03*
G01X330200Y-2590800D03*
G01X330200Y-2730500D03*
G01X463550Y-1943100D03*
G01X463550Y-1803400D03*
G01X330200Y-1803400D03*
G01X330200Y-1943100D03*
G01X463550Y-1143000D03*
G01X463550Y-1003300D03*
G01X330200Y-1003300D03*
G01X330200Y-1143000D03*
G01X1943100Y-4572000D03*
G01X1943100Y-4432300D03*
G01X1809750Y-4432300D03*
G01X1809750Y-4572000D03*
G01X2794000Y-4572000D03*
G01X2794000Y-4432300D03*
G01X2660650Y-4432300D03*
G01X2660650Y-4572000D03*
G01X3302000Y-4572000D03*
G01X3302000Y-4432300D03*
G01X3168650Y-4432300D03*
G01X3168650Y-4572000D03*
G01X1346200Y-4572000D03*
G01X1346200Y-4432300D03*
G01X1212850Y-4432300D03*
G01X1212850Y-4572000D03*
G01X4330700Y-4025900D03*
G01X4330700Y-3886200D03*
G01X4197350Y-3886200D03*
G01X4197350Y-4025900D03*
G01X469900Y-4013200D03*
G01X469900Y-3873500D03*
G01X336550Y-3873500D03*
G01X336550Y-4013200D03*
G04 Via End*

G04 Track Start*
G54D21*
G01X1942109Y-4193799D02*
G01X1942109Y-4142999D01*
G01X2018309Y-4066799D01*
G01X2704109Y-4066799D01*
G01X2776047Y-4138737D01*
G01X2776047Y-4186961D01*
G01X722282Y-3550302D02*
G01X823882Y-3448702D01*
G01X823882Y-2851902D01*
G01X729589Y-2757609D02*
G01X831189Y-2656009D01*
G01X831189Y-2059209D01*
G01X723426Y-1951446D02*
G01X825026Y-1849846D01*
G01X825026Y-1253046D01*
G01X702304Y-1130325D01*
G01X3990154Y-3420316D02*
G01X4003018Y-3407452D01*
G01X3919918Y-3420316D02*
G01X3843718Y-3344116D01*
G01X3843718Y-2683716D01*
G01X3919982Y-2607452D01*
G01X3964918Y-2607452D01*
G01X3837918Y-2480452D01*
G01X3837918Y-1883652D01*
G01X3914118Y-1807452D01*
G01X3964918Y-1807452D01*
G01X3837918Y-1680452D01*
G01X3837918Y-1083652D01*
G01X3914118Y-1007452D01*
G01X3952218Y-1007452D02*
G01X4003018Y-1007452D01*
G01X4015718Y-3532446D02*
G01X4091918Y-3456246D01*
G01X4091918Y-2859446D01*
G01X4090245Y-2654573D02*
G01X4090245Y-2057773D01*
G01X4093062Y-1857390D02*
G01X4093062Y-1260590D01*
G01X3964918Y-1132446D01*
G01X2067103Y-4193799D02*
G01X2067103Y-4244599D01*
G01X1990903Y-4320799D01*
G01X1279703Y-4320799D01*
G01X543103Y-3584199D01*
G01X543103Y-3482599D01*
G01X620370Y-3405332D01*
G01X683870Y-3405332D02*
G01X582270Y-3303732D01*
G01X582270Y-2674565D01*
G01X651504Y-2605332D01*
G01X702304Y-2605332D01*
G01X575304Y-2478332D01*
G01X575304Y-1881532D01*
G01X651504Y-1805332D01*
G01X702304Y-1805332D01*
G01X575304Y-1678332D01*
G01X575304Y-1081532D01*
G01X651504Y-1005332D01*
G01X702304Y-1005332D01*
G01X684182Y-3550302D02*
G01X664204Y-3530325D01*
G01X823882Y-2851902D02*
G01X729589Y-2757609D01*
G01X691489Y-2757609D02*
G01X664204Y-2730325D01*
G01X831189Y-2059209D02*
G01X723426Y-1951446D01*
G01X685326Y-1951446D02*
G01X664204Y-1930325D01*
G01X4091918Y-2859446D02*
G01X3988645Y-2756173D01*
G01X4090245Y-2057773D02*
G01X3991462Y-1958990D01*
G01X684182Y-3550302D02*
G01X1187076Y-4053197D01*
G01X1295843Y-4053197D01*
G03X1318703Y-4030337I0J22860D01*
G01X1318703Y-4030337D02*
G01X1318703Y-3997960D01*
G02X1364423Y-3997960I22860J0D01*
G01X1364423Y-3997960D02*
G01X1364423Y-4030337D01*
G03X1410143Y-4030337I22860J0D01*
G01X1410143Y-4030337D02*
G01X1410143Y-3997960D01*
G02X1455863Y-3997960I22860J0D01*
G01X1455863Y-3997960D02*
G01X1455863Y-4030337D01*
G03X1501583Y-4030337I22860J0D01*
G01X1501583Y-4030337D02*
G01X1501583Y-3997960D01*
G02X1547303Y-3997960I22860J0D01*
G01X1547303Y-3997960D02*
G01X1547303Y-4030337D01*
G03X1593023Y-4030337I22860J0D01*
G01X1593023Y-4030337D02*
G01X1593023Y-3997960D01*
G02X1638743Y-3997960I22860J0D01*
G01X1638743Y-3997960D02*
G01X1638743Y-4030337D01*
G03X1661603Y-4053197I22860J0D01*
G01X1852307Y-4053197D02*
G01X1942109Y-4142999D01*
G01X1661603Y-4053197D02*
G01X1852307Y-4053197D01*
G01X2067103Y-4193799D02*
G01X2264696Y-4193799D01*
G02X2287556Y-4216659I0J-22860D01*
G01X2287556Y-4216659D02*
G01X2287556Y-4269740D01*
G03X2333276Y-4269740I22860J0D01*
G01X2333276Y-4269740D02*
G01X2333276Y-4216659D01*
G02X2378996Y-4216659I22860J0D01*
G01X2378996Y-4216659D02*
G01X2378996Y-4265055D01*
G03X2424716Y-4265055I22860J0D01*
G01X2424716Y-4265055D02*
G01X2424716Y-4216659D01*
G02X2447576Y-4193799I22860J0D01*
G01X2644216Y-4193799D02*
G01X2651054Y-4186961D01*
G01X2447576Y-4193799D02*
G01X2644216Y-4193799D01*
G01X3221502Y-4313961D02*
G01X4003018Y-3532446D01*
G01X2727254Y-4313961D02*
G01X3221502Y-4313961D01*
G01X2651054Y-4237761D02*
G01X2727254Y-4313961D01*
G01X2651054Y-4186961D02*
G01X2651054Y-4237761D01*
G01X2776047Y-4138737D02*
G01X2891021Y-4138737D01*
G03X2913881Y-4115877I0J22860D01*
G01X2913881Y-4115877D02*
G01X2913881Y-4061460D01*
G02X2959601Y-4061460I22860J0D01*
G01X2959601Y-4061460D02*
G01X2959601Y-4115877D01*
G03X3005321Y-4115877I22860J0D01*
G01X3005321Y-4115877D02*
G01X3005321Y-4068818D01*
G02X3051041Y-4068818I22860J0D01*
G01X3051041Y-4068818D02*
G01X3051041Y-4115877D01*
G03X3073901Y-4138737I22860J0D01*
G01X3157047Y-4138737D02*
G01X3875468Y-3420316D01*
G01X3073901Y-4138737D02*
G01X3157047Y-4138737D01*
G01X658470Y-3405332D02*
G01X664204Y-3405332D01*
G01X658470Y-3405332D02*
G01X620370Y-3405332D01*
G01X4010512Y-1939940D02*
G01X4093062Y-1857390D01*
G01X4007695Y-2737123D02*
G01X4090245Y-2654573D01*
G01X3875468Y-3420316D02*
G01X3919918Y-3420316D01*
G01X4003018Y-3532446D02*
G01X4015718Y-3532446D01*
G01X4010512Y-1939940D02*
G01X4003018Y-1932446D01*
G01X4007695Y-2737123D02*
G01X4003018Y-2732446D01*
G01X3991462Y-1958990D02*
G01X4010512Y-1939940D01*
G01X3988645Y-2756173D02*
G01X4007695Y-2737123D01*
G01X3964918Y-3532446D02*
G01X4003018Y-3532446D01*
G01X3919918Y-3420316D02*
G01X3990154Y-3420316D01*
G01X4010512Y-1939940D02*
G01X4029562Y-1958990D01*
G01X4007695Y-2737123D02*
G01X4026745Y-2756173D01*
G04 Track End*

M02*

