G04 Layer: InnerLayer2*
G04 EasyEDA Pro v2.2.27.1, 2024-09-15 23:16:57*
G04 Gerber Generator version 0.3*
G04 Scale: 100 percent, Rotated: No, Reflected: No*
G04 Dimensions in millimeters*
G04 Leading zeros omitted, absolute positions, 3 integers and 5 decimals*
%FSLAX35Y35*%
%MOMM*%
%ADD10O,1.2X2.2*%
%ADD11C,3.79999*%
%ADD12C,0.61*%
G75*


G04 Copper Start*
G36*
G01X1760149Y-1223200D02*
G01X1760149Y-1168400D01*
G01X2938851Y-1168400D01*
G01X2938851Y-1223200D01*
G03X3110159Y-1223200I85654J0D01*
G01X3110159Y-1168400D01*
G01X3733800Y-1168400D01*
G01X3733800Y-3276600D01*
G01X939800Y-3276600D01*
G01X939800Y-1168400D01*
G01X1588841Y-1168400D01*
G01X1588841Y-1223200D01*
G03X1760149Y-1223200I85654J0D01*
G37*
%LPC*%
G36*
G01X1206500Y-2353254D02*
G03X1206500Y-1921947I0J215654D01*
G03X1206500Y-2353254I0J-215654D01*
G37*
G36*
G01X1917700Y-2721554D02*
G03X1917700Y-2290247I0J215654D01*
G03X1917700Y-2721554I0J-215654D01*
G37*
G36*
G01X1773852Y-1773199D02*
G03X2205159Y-1773199I215654J0D01*
G03X1773852Y-1773199I-215654J0D01*
G37*
G36*
G01X2760350Y-2721554D02*
G03X2760350Y-2290247I0J215654D01*
G03X2760350Y-2721554I0J-215654D01*
G37*
G36*
G01X3479800Y-2353254D02*
G03X3479800Y-1921947I0J215654D01*
G03X3479800Y-2353254I0J-215654D01*
G37*
%LPD*%
G36*
G01X3048000Y-4013200D02*
G01X1625600Y-4013200D01*
G01X1625600Y-2806700D01*
G01X3048000Y-2806700D01*
G01X3048000Y-4013200D01*
G37*
%LPC*%
G36*
G01X2383133Y-3679497D02*
G03X2814441Y-3679497I215654J0D01*
G03X2383133Y-3679497I-215654J0D01*
G37*
%LPD*%
G04 Copper End*

G04 Pad Start*
G54D10*
G01X1674495Y-1173201D03*
G01X3024505Y-1173201D03*
G54D11*
G01X1989506Y-1773199D03*
G01X2709494Y-1773199D03*
G01X3479800Y-1431099D03*
G01X3479800Y-931100D03*
G01X1206500Y-1431099D03*
G01X1206500Y-931100D03*
G01X1917700Y-3005899D03*
G01X1917700Y-2505900D03*
G01X1206500Y-2637599D03*
G01X1206500Y-2137600D03*
G01X2098788Y-3679497D03*
G01X2598787Y-3679497D03*
G01X2760350Y-3005899D03*
G01X2760350Y-2505900D03*
G01X3479800Y-2637599D03*
G01X3479800Y-2137600D03*
G04 Pad End*

G04 Via Start*
G54D12*
G01X990600Y-3390900D03*
G01X1123950Y-3390900D03*
G01X1390650Y-3390900D03*
G01X1257300Y-3390900D03*
G01X1524000Y-3390900D03*
G01X1524000Y-3530600D03*
G01X1390650Y-3530600D03*
G01X1257300Y-3530600D03*
G01X1123950Y-3530600D03*
G01X990600Y-3530600D03*
G01X1524000Y-3670300D03*
G01X1390650Y-3670300D03*
G01X1257300Y-3670300D03*
G01X1123950Y-3670300D03*
G01X990600Y-3670300D03*
G01X3416300Y-3670300D03*
G01X3282950Y-3670300D03*
G01X3149600Y-3670300D03*
G01X3416300Y-3530600D03*
G01X3282950Y-3530600D03*
G01X3149600Y-3530600D03*
G01X3149600Y-3390900D03*
G01X3282950Y-3390900D03*
G01X3416300Y-3390900D03*
G01X3841750Y-4584700D03*
G01X3841750Y-4445000D03*
G01X3841750Y-4305300D03*
G01X3708400Y-4305300D03*
G01X3575050Y-4305300D03*
G01X3575050Y-4445000D03*
G01X3708400Y-4445000D03*
G01X3708400Y-4584700D03*
G01X3575050Y-4584700D03*
G01X1085850Y-4597400D03*
G01X1085850Y-4457700D03*
G01X1085850Y-4318000D03*
G01X952500Y-4318000D03*
G01X819150Y-4318000D03*
G01X819150Y-4457700D03*
G01X952500Y-4457700D03*
G01X952500Y-4597400D03*
G01X819150Y-4597400D03*
G01X1327150Y-546100D03*
G01X1327150Y-406400D03*
G01X1327150Y-266700D03*
G01X1193800Y-266700D03*
G01X1060450Y-266700D03*
G01X1060450Y-406400D03*
G01X1193800Y-406400D03*
G01X1193800Y-546100D03*
G01X1060450Y-546100D03*
G01X1974850Y-546100D03*
G01X1974850Y-406400D03*
G01X1974850Y-266700D03*
G01X1841500Y-266700D03*
G01X1708150Y-266700D03*
G01X1708150Y-406400D03*
G01X1841500Y-406400D03*
G01X1841500Y-546100D03*
G01X1708150Y-546100D03*
G01X2952750Y-546100D03*
G01X2952750Y-406400D03*
G01X2952750Y-266700D03*
G01X2819400Y-266700D03*
G01X2686050Y-266700D03*
G01X2686050Y-406400D03*
G01X2819400Y-406400D03*
G01X2819400Y-546100D03*
G01X2686050Y-546100D03*
G01X3613150Y-546100D03*
G01X3613150Y-406400D03*
G01X3613150Y-266700D03*
G01X3479800Y-266700D03*
G01X3346450Y-266700D03*
G01X3346450Y-406400D03*
G01X3479800Y-406400D03*
G01X3479800Y-546100D03*
G01X3346450Y-546100D03*
G01X4324350Y-1143000D03*
G01X4324350Y-1003300D03*
G01X4191000Y-1003300D03*
G01X4191000Y-1143000D03*
G01X4324350Y-1943100D03*
G01X4324350Y-1803400D03*
G01X4191000Y-1803400D03*
G01X4191000Y-1943100D03*
G01X4324350Y-3530600D03*
G01X4324350Y-3390900D03*
G01X4191000Y-3390900D03*
G01X4191000Y-3530600D03*
G01X4324350Y-2730500D03*
G01X4324350Y-2590800D03*
G01X4191000Y-2590800D03*
G01X4191000Y-2730500D03*
G01X463550Y-3530600D03*
G01X463550Y-3390900D03*
G01X330200Y-3390900D03*
G01X330200Y-3530600D03*
G01X463550Y-2730500D03*
G01X463550Y-2590800D03*
G01X330200Y-2590800D03*
G01X330200Y-2730500D03*
G01X463550Y-1943100D03*
G01X463550Y-1803400D03*
G01X330200Y-1803400D03*
G01X330200Y-1943100D03*
G01X463550Y-1143000D03*
G01X463550Y-1003300D03*
G01X330200Y-1003300D03*
G01X330200Y-1143000D03*
G01X1943100Y-4572000D03*
G01X1943100Y-4432300D03*
G01X1809750Y-4432300D03*
G01X1809750Y-4572000D03*
G01X2794000Y-4572000D03*
G01X2794000Y-4432300D03*
G01X2660650Y-4432300D03*
G01X2660650Y-4572000D03*
G01X3302000Y-4572000D03*
G01X3302000Y-4432300D03*
G01X3168650Y-4432300D03*
G01X3168650Y-4572000D03*
G01X1346200Y-4572000D03*
G01X1346200Y-4432300D03*
G01X1212850Y-4432300D03*
G01X1212850Y-4572000D03*
G01X4330700Y-4025900D03*
G01X4330700Y-3886200D03*
G01X4197350Y-3886200D03*
G01X4197350Y-4025900D03*
G01X469900Y-4013200D03*
G01X469900Y-3873500D03*
G01X336550Y-3873500D03*
G01X336550Y-4013200D03*
G04 Via End*

M02*

