G04 Layer: DrillDrawingLayer*
G04 EasyEDA Pro v2.2.27.1, 2024-09-15 23:16:57*
G04 Gerber Generator version 0.3*
G04 Scale: 100 percent, Rotated: No, Reflected: No*
G04 Dimensions in millimeters*
G04 Leading zeros omitted, absolute positions, 3 integers and 5 decimals*
%FSLAX35Y35*%
%MOMM*%
%AMIconRect*4,1,4,0.2,-0.2,-0.2,-0.2,-0.2,0.2,0.2,0.2,0.2,-0.2,0*4,0,4,0.166667,-0.166667,0.166667,0.166667,-0.166667,0.166667,-0.166667,-0.166667,0.166667,-0.166667,0*%
%AMIconTriangle*4,1,3,-0.242567,0.171767,0.242567,0.171767,0,-0.2706,-0.242567,0.171767,0*4,0,3,-0.189767,0.1386,0,-0.1953,0.190167,0.1386,-0.189767,0.1386,0*%
%AMIconStar6*4,1,12,0.0862,0.1492,0.213233,0.123367,0.172367,0,0.213233,-0.1229,0.0862,-0.148733,0,-0.245767,-0.085767,-0.148733,-0.213267,-0.1229,-0.171933,0,-0.213267,0.1229,-0.085767,0.1492,0,0.245767,0.0862,0.1492,0*4,0,12,-0.000333,0.195333,-0.064333,0.122667,-0.169667,0.097667,-0.138333,-0.005333,-0.169667,-0.098,-0.064333,-0.122667,-0.000333,-0.195667,0.064333,-0.122667,0.169667,-0.098,0.138667,0.005,0.169667,0.098,0.064333,0.122333,-0.000333,0.195333,0*%
%ADD10IconRect*%
%ADD11C,0.44X0.373333*%
%ADD12IconTriangle*%
%ADD13IconStar6*%
G75*


G04 Drill Drawing Start*
G54D10*
G01X1989493Y-1773207D03*
G01X2709482Y-1773212D03*
G54D11*
G01X1674485Y-1173198D03*
G01X3024495Y-1173223D03*
G54D12*
G01X1206500Y-2637612D03*
G01X1206500Y-2137613D03*
G01X1206500Y-1431112D03*
G01X1206500Y-931113D03*
G01X1917700Y-2505913D03*
G01X1917700Y-3005912D03*
G01X2098775Y-3679497D03*
G01X2598774Y-3679497D03*
G01X2760350Y-2505913D03*
G01X2760350Y-3005912D03*
G01X3479800Y-2637612D03*
G01X3479800Y-2137613D03*
G01X3479800Y-1431112D03*
G01X3479800Y-931113D03*
G54D13*
G01X330200Y-3530600D03*
G01X330200Y-3390900D03*
G01X330200Y-2730500D03*
G01X330200Y-2590800D03*
G01X330200Y-1943100D03*
G01X330200Y-1803400D03*
G01X330200Y-1143000D03*
G01X330200Y-1003300D03*
G01X336550Y-4013200D03*
G01X336550Y-3873500D03*
G01X463550Y-3530600D03*
G01X463550Y-3390900D03*
G01X463550Y-2730500D03*
G01X463550Y-2590800D03*
G01X463550Y-1943100D03*
G01X463550Y-1803400D03*
G01X463550Y-1143000D03*
G01X463550Y-1003300D03*
G01X469900Y-4013200D03*
G01X469900Y-3873500D03*
G01X819150Y-4597400D03*
G01X819150Y-4457700D03*
G01X819150Y-4318000D03*
G01X952500Y-4597400D03*
G01X952500Y-4457700D03*
G01X952500Y-4318000D03*
G01X990600Y-3670300D03*
G01X990600Y-3530600D03*
G01X990600Y-3390900D03*
G01X1060450Y-546100D03*
G01X1060450Y-406400D03*
G01X1060450Y-266700D03*
G01X1085850Y-4597400D03*
G01X1085850Y-4457700D03*
G01X1085850Y-4318000D03*
G01X1123950Y-3670300D03*
G01X1123950Y-3530600D03*
G01X1123950Y-3390900D03*
G01X1193800Y-546100D03*
G01X1193800Y-406400D03*
G01X1193800Y-266700D03*
G01X1212850Y-4572000D03*
G01X1212850Y-4432300D03*
G01X1257300Y-3670300D03*
G01X1257300Y-3530600D03*
G01X1257300Y-3390900D03*
G01X1327150Y-546100D03*
G01X1327150Y-406400D03*
G01X1327150Y-266700D03*
G01X1346200Y-4572000D03*
G01X1346200Y-4432300D03*
G01X1390650Y-3670300D03*
G01X1390650Y-3530600D03*
G01X1390650Y-3390900D03*
G01X1524000Y-3670300D03*
G01X1524000Y-3530600D03*
G01X1524000Y-3390900D03*
G01X1708150Y-546100D03*
G01X1708150Y-406400D03*
G01X1708150Y-266700D03*
G01X1809750Y-4572000D03*
G01X1809750Y-4432300D03*
G01X1841500Y-546100D03*
G01X1841500Y-406400D03*
G01X1841500Y-266700D03*
G01X1943100Y-4572000D03*
G01X1943100Y-4432300D03*
G01X1974850Y-546100D03*
G01X1974850Y-406400D03*
G01X1974850Y-266700D03*
G01X2660650Y-4572000D03*
G01X2660650Y-4432300D03*
G01X2686050Y-546100D03*
G01X2686050Y-406400D03*
G01X2686050Y-266700D03*
G01X2794000Y-4572000D03*
G01X2794000Y-4432300D03*
G01X2819400Y-546100D03*
G01X2819400Y-406400D03*
G01X2819400Y-266700D03*
G01X2952750Y-546100D03*
G01X2952750Y-406400D03*
G01X2952750Y-266700D03*
G01X3149600Y-3670300D03*
G01X3149600Y-3530600D03*
G01X3149600Y-3390900D03*
G01X3168650Y-4572000D03*
G01X3168650Y-4432300D03*
G01X3282950Y-3670300D03*
G01X3282950Y-3530600D03*
G01X3282950Y-3390900D03*
G01X3302000Y-4572000D03*
G01X3302000Y-4432300D03*
G01X3346450Y-546100D03*
G01X3346450Y-406400D03*
G01X3346450Y-266700D03*
G01X3416300Y-3670300D03*
G01X3416300Y-3530600D03*
G01X3416300Y-3390900D03*
G01X3479800Y-546100D03*
G01X3479800Y-406400D03*
G01X3479800Y-266700D03*
G01X3575050Y-4584700D03*
G01X3575050Y-4445000D03*
G01X3575050Y-4305300D03*
G01X3613150Y-546100D03*
G01X3613150Y-406400D03*
G01X3613150Y-266700D03*
G01X3708400Y-4584700D03*
G01X3708400Y-4445000D03*
G01X3708400Y-4305300D03*
G01X3841750Y-4584700D03*
G01X3841750Y-4445000D03*
G01X3841750Y-4305300D03*
G01X4191000Y-3530600D03*
G01X4191000Y-3390900D03*
G01X4191000Y-2730500D03*
G01X4191000Y-2590800D03*
G01X4191000Y-1943100D03*
G01X4191000Y-1803400D03*
G01X4191000Y-1143000D03*
G01X4191000Y-1003300D03*
G01X4197350Y-4025900D03*
G01X4197350Y-3886200D03*
G01X4324350Y-3530600D03*
G01X4324350Y-3390900D03*
G01X4324350Y-2730500D03*
G01X4324350Y-2590800D03*
G01X4324350Y-1943100D03*
G01X4324350Y-1803400D03*
G01X4324350Y-1143000D03*
G01X4324350Y-1003300D03*
G01X4330700Y-4025900D03*
G01X4330700Y-3886200D03*
G04 Drill Drawing End*

M02*

